<?xml version="1.0" standalone="no"?>
<!DOCTYPE svg PUBLIC "-//W3C//DTD SVG 20010904//EN"
 "http://www.w3.org/TR/2001/REC-SVG-20010904/DTD/svg10.dtd">
<svg version="1.0" xmlns="http://www.w3.org/2000/svg"
 width="192.000000pt" height="192.000000pt" viewBox="0 0 192.000000 192.000000"
 preserveAspectRatio="xMidYMid meet">

<g transform="translate(0.000000,192.000000) scale(0.100000,-0.100000)"
fill="#000000" stroke="none">
<path d="M0 1771 l0 -150 62 -60 c55 -55 88 -75 88 -53 0 4 15 24 34 44 24 26
40 35 54 31 14 -3 24 2 31 15 10 19 28 25 141 47 8 2 21 4 28 4 7 1 10 6 7 11
-3 6 -1 10 4 10 15 0 14 -16 -5 -51 -28 -55 -55 -183 -61 -294 -3 -60 -6 -111
-7 -112 -8 -11 -93 36 -154 85 -112 88 -178 160 -201 217 l-20 50 0 -56 -1
-57 117 -98 c65 -54 122 -101 127 -105 5 -5 4 -14 -3 -23 -11 -13 -26 -4 -109
65 -133 110 -132 110 -132 57 0 -43 1 -44 100 -123 69 -55 98 -85 94 -95 -15
-40 -34 -128 -34 -157 0 -49 64 -168 121 -225 27 -27 58 -67 69 -88 23 -46 52
-64 86 -56 13 4 24 2 24 -3 0 -21 -185 -320 -223 -359 -23 -24 -66 -55 -94
-69 -42 -20 -60 -37 -91 -87 -54 -86 -54 -86 -45 -86 4 0 27 31 50 68 40 65
47 71 135 116 51 25 85 44 75 42 -23 -7 -22 0 11 43 16 20 62 93 103 163 41
70 77 128 81 128 4 0 10 -12 14 -27 17 -82 39 -117 128 -207 50 -50 116 -110
147 -133 39 -29 70 -65 103 -117 26 -42 52 -76 58 -76 9 0 -6 32 -47 93 l-17
27 76 -36 c127 -60 181 -51 320 56 36 28 66 48 66 45 0 -2 -18 -44 -40 -91
-22 -48 -40 -88 -40 -90 0 -2 69 -4 154 -4 l154 0 7 83 c3 45 2 154 -3 241 -7
124 -6 171 4 209 30 116 37 69 33 -252 -3 -187 -1 -277 6 -270 6 6 11 120 14
284 3 258 4 275 21 275 10 0 20 6 23 13 14 40 21 -36 27 -296 4 -197 9 -278
14 -250 11 54 27 67 85 69 25 1 59 5 74 9 20 5 33 3 47 -10 24 -21 39 -13 20
11 -11 12 -25 14 -64 10 -28 -2 -75 -7 -103 -9 l-53 -4 0 147 c0 145 1 149 35
234 37 91 43 149 24 205 -10 30 -9 34 31 77 87 95 117 213 76 298 -23 46 -93
116 -116 116 -10 0 -25 -9 -35 -20 -10 -11 -21 -20 -24 -20 -3 0 -6 57 -6 127
0 71 -3 155 -7 188 -7 51 -6 57 6 43 7 -10 16 -15 19 -12 3 3 16 -1 29 -10 12
-9 29 -16 38 -16 18 0 60 43 118 122 l42 57 0 136 0 135 -317 0 -318 -1 60
-31 c91 -47 184 -145 233 -248 55 -115 72 -184 79 -320 5 -108 3 -130 -41
-360 -64 -335 -102 -485 -133 -539 -37 -65 -256 -279 -327 -320 -79 -47 -129
-46 -228 3 -145 72 -361 255 -407 344 -26 51 -62 216 -93 427 -17 115 -22 197
-23 355 0 201 1 207 29 295 54 163 166 295 311 365 l60 29 -79 1 -78 0 6 -26
c5 -18 2 -32 -10 -45 -28 -31 -42 -23 -50 26 l-6 45 -294 0 -294 0 0 -149z
m351 -574 c30 -20 34 -29 37 -72 l3 -50 -34 33 c-21 20 -43 32 -53 30 -22 -4
-64 -81 -64 -118 0 -18 7 -8 25 34 32 79 37 82 72 52 60 -51 82 -151 46 -214
-15 -26 -15 -35 -3 -86 7 -31 10 -59 7 -62 -12 -12 -35 16 -41 50 -4 22 -19
43 -47 66 -35 27 -40 36 -34 59 8 32 43 71 64 71 12 0 13 2 2 13 -10 10 -19 5
-47 -25 -48 -53 -46 -87 6 -129 24 -19 40 -41 40 -53 0 -30 28 -66 51 -66 28
0 32 20 14 72 -11 35 -13 53 -5 73 6 15 13 26 15 23 6 -6 44 -233 45 -261 0
-15 -7 -18 -32 -15 -27 2 -37 10 -53 43 -11 22 -44 64 -73 92 -32 33 -66 81
-88 125 -39 82 -40 110 -2 226 36 108 81 135 149 89z m1471 -99 c66 -97 39
-212 -81 -340 -32 -35 -70 -87 -85 -115 -27 -55 -40 -62 -70 -40 -15 11 -17
21 -11 55 4 23 11 42 16 42 5 0 9 -4 9 -10 0 -15 36 -12 50 5 7 8 15 29 19 46
5 25 14 34 41 43 60 19 75 111 27 164 -11 12 -25 22 -30 22 -6 0 -3 -8 6 -18
53 -58 38 -144 -27 -156 -33 -6 -36 -10 -36 -40 0 -19 -7 -39 -15 -46 -25 -21
-30 -3 -10 34 18 33 18 36 1 54 -16 19 -16 24 0 111 16 81 22 94 56 128 37 36
38 36 59 17 11 -10 27 -32 34 -49 13 -29 13 -30 14 -5 1 30 -21 65 -51 81 -16
9 -26 7 -49 -10 -37 -28 -39 -27 -28 12 5 17 25 47 44 65 l36 33 27 -21 c15
-12 39 -40 54 -62z m-214 -343 c-14 -31 -21 -26 -12 9 3 14 10 23 15 21 4 -3
3 -17 -3 -30z m132 -75 c16 -39 7 -94 -27 -167 l-27 -58 -9 92 c-8 86 -8 95
13 128 26 43 34 44 50 5z"/>
<path d="M1884 1555 c-42 -81 -50 -119 -30 -150 9 -14 23 -25 30 -25 30 0 37
27 34 131 l-3 104 -31 -60z"/>
<path d="M1413 860 c-53 -8 -89 -26 -178 -89 -27 -19 -65 -40 -84 -47 l-35
-12 40 -20 c31 -16 44 -18 59 -10 14 8 20 8 23 -1 2 -7 14 -21 26 -32 49 -47
142 2 167 87 15 48 26 55 37 23 8 -20 8 -20 26 0 22 24 13 41 -22 41 -15 0
-33 4 -40 9 -16 10 23 27 86 36 24 4 42 8 40 10 -10 8 -101 12 -145 5z m-83
-123 c0 -24 -37 -50 -55 -39 -15 8 -14 11 10 30 32 25 45 28 45 9z m90 -6 c0
-16 -51 -71 -66 -71 -19 0 -18 16 1 24 8 3 20 17 27 31 11 24 38 35 38 16z"/>
<path d="M540 840 c-20 -6 -13 -8 30 -10 30 -1 66 -5 80 -9 25 -8 24 -8 -11
-23 -49 -21 -56 -36 -30 -62 19 -18 21 -18 15 -2 -8 20 9 36 39 36 12 0 17 -8
17 -26 0 -17 14 -40 39 -65 34 -34 44 -39 85 -39 37 0 52 5 73 26 21 21 30 24
47 16 16 -7 30 -4 58 12 43 24 49 37 16 34 -13 -1 -49 15 -80 35 -124 79 -148
87 -255 86 -54 -1 -109 -5 -123 -9z m233 -63 c16 -11 16 -14 2 -35 -21 -29
-41 -28 -61 4 -15 22 -15 27 -3 35 20 12 42 11 62 -4z m102 -77 c3 -5 -3 -18
-15 -30 -24 -24 -70 -27 -70 -5 0 8 6 15 14 15 7 0 19 7 26 15 14 17 36 20 45
5z"/>
<path d="M1386 635 c-12 -9 -42 -15 -79 -15 -36 0 -56 -4 -52 -10 3 -5 30 -10
60 -10 43 0 60 5 82 25 30 26 21 34 -11 10z"/>
<path d="M724 625 c25 -19 102 -30 129 -17 18 8 12 10 -34 10 -30 1 -69 6 -85
12 -26 9 -27 9 -10 -5z"/>
<path d="M1161 394 c0 -11 3 -14 6 -6 3 7 2 16 -1 19 -3 4 -6 -2 -5 -13z"/>
<path d="M960 370 c0 -5 9 -10 21 -10 11 0 17 5 14 10 -3 6 -13 10 -21 10 -8
0 -14 -4 -14 -10z"/>
<path d="M1105 370 c-8 -13 5 -13 25 0 13 8 13 10 -2 10 -9 0 -20 -4 -23 -10z"/>
<path d="M1110 227 c14 -8 27 -12 30 -10 7 6 -23 23 -40 23 -8 0 -4 -6 10 -13z"/>
<path d="M1058 223 c7 -3 16 -2 19 1 4 3 -2 6 -13 5 -11 0 -14 -3 -6 -6z"/>
<path d="M710 114 c0 -14 27 -50 33 -44 3 3 -3 16 -13 30 -11 14 -20 20 -20
14z"/>
</g>
</svg>
